# This file uses centimeters as units for non-parametric coordinates.

mtllib PuertaDer.mtl
g default
v -0.100326 -2.305425 -0.004405
v -0.119541 -2.305425 1.896931
v -0.100326 2.271124 -0.004405
v -0.119541 2.271124 1.896931
v 0.096295 2.271124 -0.002414
v 0.077080 2.271124 1.898915
v 0.096295 -2.305425 -0.002414
v 0.077080 -2.305425 1.898915
vt 0.002482 0.002025
vt 0.999700 -0.002153
vt 0.994593 0.997570
vt 0.000200 1.001594
vt 0.382974 0.281898
vt 0.619019 0.265949
vt 0.600922 0.500000
vt 0.375000 0.500000
vt 0.009062 0.989484
vt 0.987092 0.992483
vt 0.991460 0.001796
vt -0.000028 0.001881
vt 0.365794 0.790505
vt 0.625000 0.750000
vt 0.625000 1.000000
vt 0.375000 1.000000
vt 0.625000 0.000000
vt 0.875000 0.000000
vt 0.875000 0.250000
vt 0.659578 0.224163
vt 0.125000 0.000000
vt 0.403181 -0.001879
vt 0.375000 0.250000
vt 0.125000 0.250000
vn -0.999949 0.000000 -0.010105
vn -0.999949 0.000000 -0.010105
vn -0.999949 0.000000 -0.010105
vn -0.999949 0.000000 -0.010105
vn 0.000000 1.000000 0.000000
vn 0.000000 1.000000 0.000000
vn 0.000000 1.000000 0.000000
vn 0.000000 1.000000 0.000000
vn 0.999949 0.000000 0.010105
vn 0.999949 0.000000 0.010105
vn 0.999949 0.000000 0.010105
vn 0.999949 0.000000 0.010105
vn 0.000000 -1.000000 0.000000
vn 0.000000 -1.000000 0.000000
vn 0.000000 -1.000000 0.000000
vn 0.000000 -1.000000 0.000000
vn -0.010105 0.000000 0.999949
vn -0.010105 0.000000 0.999949
vn -0.010105 0.000000 0.999949
vn -0.010105 0.000000 0.999949
vn 0.010105 0.000000 -0.999949
vn 0.010105 0.000000 -0.999949
vn 0.010105 0.000000 -0.999949
vn 0.010105 0.000000 -0.999949
s off
g PuertaDer1:pCube12pasted__group3group8 group
usemtl PuertaDer1:lambert26SG
f 1/1/1 2/2/2 4/3/3 3/4/4
f 3/5/5 4/6/6 6/7/7 5/8/8
f 5/9/9 6/10/10 8/11/11 7/12/12
f 7/13/13 8/14/14 2/15/15 1/16/16
f 2/17/17 8/18/18 6/19/19 4/20/20
f 7/21/21 1/22/22 3/23/23 5/24/24
