# This file uses centimeters as units for non-parametric coordinates.

mtllib Camino1.mtl
g default
v 63.407681 0.372779 58.189453
v 82.097633 0.372779 58.189453
v 63.407681 0.482404 58.189453
v 82.097633 0.482404 58.189453
v 63.407681 0.482404 -83.726044
v 82.097633 0.482404 -83.726044
v 63.407681 0.372779 -83.726044
v 82.097633 0.372779 -83.726044
v 82.108963 0.369006 -83.369331
v 82.108963 0.369006 -102.059288
v 82.108963 0.478631 -83.369331
v 82.108963 0.478631 -102.059288
v 63.286228 0.478631 -83.369331
v 63.286228 0.478631 -102.059288
v 63.286228 0.369006 -83.369331
v 63.286228 0.369006 -102.059288
v 63.525299 0.372779 -83.369331
v 63.525299 0.372779 -102.059288
v 63.525299 0.482404 -83.369331
v 63.525299 0.482404 -102.059288
v 21.625389 0.482404 -83.369331
v 21.625389 0.482404 -102.059288
v 21.625389 0.372779 -83.369331
v 21.625389 0.372779 -102.059288
vt 0.375000 0.000000
vt 0.625000 0.000000
vt 0.000139 0.000092
vt 0.625000 0.250000
vt 0.375000 0.500000
vt 1.002264 1.002218
vt 0.375000 0.750000
vt 0.625000 0.750000
vt 0.375000 1.000000
vt 0.625000 1.000000
vt 0.875000 0.000000
vt 0.875000 0.250000
vt 0.125000 0.000000
vt 0.125000 0.250000
vt 0.000139 0.999815
vt 0.625000 0.500000
vt 0.375000 0.250000
vt 1.004667 -0.004714
vt 0.375000 0.000000
vt 0.625000 0.000000
vt 0.625000 0.250000
vt 0.375000 0.250000
vt 0.002542 0.704159
vt 0.300601 0.708965
vt 0.295795 0.999815
vt 0.004945 1.002218
vt 0.375000 0.500000
vt 0.625000 0.500000
vt 0.625000 0.750000
vt 0.375000 0.750000
vt 0.625000 1.000000
vt 0.375000 1.000000
vt 0.875000 0.000000
vt 0.875000 0.250000
vt 0.125000 0.000000
vt 0.125000 0.250000
vt 0.375000 0.000000
vt 0.625000 0.000000
vt 0.625000 0.250000
vt 0.375000 0.250000
vt 0.000139 0.000092
vt 1.004667 -0.004714
vt 1.002264 1.002218
vt 0.000139 0.999815
vt 0.375000 0.500000
vt 0.625000 0.500000
vt 0.625000 0.750000
vt 0.375000 0.750000
vt 0.625000 1.000000
vt 0.375000 1.000000
vt 0.875000 0.000000
vt 0.875000 0.250000
vt 0.125000 0.000000
vt 0.125000 0.250000
vn 0.000000 0.000000 1.000000
vn 0.000000 0.000000 1.000000
vn 0.000000 0.000000 1.000000
vn 0.000000 0.000000 1.000000
vn 0.000000 1.000000 0.000000
vn 0.000000 1.000000 0.000000
vn 0.000000 1.000000 0.000000
vn 0.000000 1.000000 0.000000
vn 0.000000 0.000000 -1.000000
vn 0.000000 0.000000 -1.000000
vn 0.000000 0.000000 -1.000000
vn 0.000000 0.000000 -1.000000
vn 0.000000 -1.000000 0.000000
vn 0.000000 -1.000000 0.000000
vn 0.000000 -1.000000 0.000000
vn 0.000000 -1.000000 0.000000
vn 1.000000 0.000000 0.000000
vn 1.000000 0.000000 0.000000
vn 1.000000 0.000000 0.000000
vn 1.000000 0.000000 0.000000
vn -1.000000 0.000000 0.000000
vn -1.000000 0.000000 0.000000
vn -1.000000 0.000000 0.000000
vn -1.000000 0.000000 0.000000
vn 1.000000 0.000000 0.000000
vn 1.000000 0.000000 0.000000
vn 1.000000 0.000000 0.000000
vn 1.000000 0.000000 0.000000
vn 0.000000 1.000000 0.000000
vn 0.000000 1.000000 0.000000
vn 0.000000 1.000000 0.000000
vn 0.000000 1.000000 0.000000
vn -1.000000 0.000000 0.000000
vn -1.000000 0.000000 0.000000
vn -1.000000 0.000000 0.000000
vn -1.000000 0.000000 0.000000
vn 0.000000 -1.000000 0.000000
vn 0.000000 -1.000000 0.000000
vn 0.000000 -1.000000 0.000000
vn 0.000000 -1.000000 0.000000
vn 0.000000 0.000000 -1.000000
vn 0.000000 0.000000 -1.000000
vn 0.000000 0.000000 -1.000000
vn 0.000000 0.000000 -1.000000
vn 0.000000 0.000000 1.000000
vn 0.000000 0.000000 1.000000
vn 0.000000 0.000000 1.000000
vn 0.000000 0.000000 1.000000
vn 1.000000 0.000000 0.000000
vn 1.000000 0.000000 0.000000
vn 1.000000 0.000000 0.000000
vn 1.000000 0.000000 0.000000
vn 0.000000 1.000000 0.000000
vn 0.000000 1.000000 0.000000
vn 0.000000 1.000000 0.000000
vn 0.000000 1.000000 0.000000
vn -1.000000 0.000000 0.000000
vn -1.000000 0.000000 0.000000
vn -1.000000 0.000000 0.000000
vn -1.000000 0.000000 0.000000
vn 0.000000 -1.000000 0.000000
vn 0.000000 -1.000000 0.000000
vn 0.000000 -1.000000 0.000000
vn 0.000000 -1.000000 0.000000
vn 0.000000 0.000000 -1.000000
vn 0.000000 0.000000 -1.000000
vn 0.000000 0.000000 -1.000000
vn 0.000000 0.000000 -1.000000
vn 0.000000 0.000000 1.000000
vn 0.000000 0.000000 1.000000
vn 0.000000 0.000000 1.000000
vn 0.000000 0.000000 1.000000
s off
g Calle2
usemtl lambert2SG
f 1/1/1 2/2/2 4/4/3 3/17/4
f 3/3/5 4/18/6 6/6/7 5/15/8
f 5/5/9 6/16/10 8/8/11 7/7/12
f 7/7/13 8/8/14 2/10/15 1/9/16
f 2/2/17 8/11/18 6/12/19 4/4/20
f 7/13/21 1/1/22 3/17/23 5/14/24
usemtl pasted__pasted__lambert2SG
f 9/19/25 10/20/26 12/21/27 11/22/28
f 11/23/29 12/24/30 14/25/31 13/26/32
f 13/27/33 14/28/34 16/29/35 15/30/36
f 15/30/37 16/29/38 10/31/39 9/32/40
f 10/20/41 16/33/42 14/34/43 12/21/44
f 15/35/45 9/19/46 11/22/47 13/36/48
usemtl pasted__lambert2SG
f 17/37/49 18/38/50 20/39/51 19/40/52
f 19/41/53 20/42/54 22/43/55 21/44/56
f 21/45/57 22/46/58 24/47/59 23/48/60
f 23/48/61 24/47/62 18/49/63 17/50/64
f 18/38/65 24/51/66 22/52/67 20/39/68
f 23/53/69 17/37/70 19/40/71 21/54/72
